<?xml version="1.0" encoding="utf-8"?>
<!-- Generator: Adobe Illustrator 27.0.0, SVG Export Plug-In . SVG Version: 6.00 Build 0)  -->
<svg version="1.1"
	 id="svg706" xmlns:inkscape="http://www.inkscape.org/namespaces/inkscape" xmlns:svg="http://www.w3.org/2000/svg" xmlns:sodipodi="http://sodipodi.sourceforge.net/DTD/sodipodi-0.dtd"
	 xmlns="http://www.w3.org/2000/svg" xmlns:xlink="http://www.w3.org/1999/xlink" x="0px" y="0px" viewBox="0 0 255 240"
	 style="enable-background:new 0 0 255 240;" xml:space="preserve">
<style type="text/css">
	.st0{opacity:0.9003;fill:#A9A9A9;enable-background:new    ;}
	.st1{fill:#CCCCCC;}
	.st2{fill:#4D4D4D;}
	.st3{fill:none;stroke:#333333;stroke-width:2.0926;stroke-linejoin:round;stroke-miterlimit:16;}
	.st4{opacity:0.7997;fill:#EDAE1A;fill-opacity:0.8039;enable-background:new    ;}
	.st5{opacity:0.7997;fill:#D2AD2C;fill-opacity:0.8039;enable-background:new    ;}
	.st6{opacity:0.9495;fill:#F0D01A;fill-opacity:0.8461;enable-background:new    ;}
	.st7{fill:#FFE436;fill-opacity:0.898;}
	.st8{fill:#F6C626;fill-opacity:0.903;}
	.st9{fill:#F0D01A;fill-opacity:0.8461;}
</style>
<sodipodi:namedview  bordercolor="#ffffff" borderopacity="1" id="namedview53" inkscape:bbox-nodes="true" inkscape:bbox-paths="true" inkscape:current-layer="svg706" inkscape:cx="127.48163" inkscape:cy="212.46938" inkscape:deskcolor="#d1d1d1" inkscape:guide-bbox="true" inkscape:pagecheckerboard="1" inkscape:pageopacity="0" inkscape:pageshadow="0" inkscape:showpageshadow="0" inkscape:snap-bbox="true" inkscape:snap-bbox-edge-midpoints="true" inkscape:snap-bbox-midpoints="true" inkscape:snap-global="true" inkscape:window-height="455" inkscape:window-maximized="0" inkscape:window-width="1496" inkscape:window-x="0" inkscape:window-y="38" inkscape:zoom="1.4355009" pagecolor="#505050" showgrid="false" showguides="true">
	</sodipodi:namedview>
<path id="path2-6" sodipodi:nodetypes="ccccccccccccccccccccccccc" class="st0" d="M84.4,163.4l17.9-31l-3.1-4.9L97.8,111L85.3,83.1
	l18.4,10.4l8.2,19.1l5.1,7.6l17.7-20.4l26.8-3.9l12.8-3.4l-5.8,12.4l-24.9,5.8l-19.7,16.9l22.2,8.2l17.2,18.4l14.7,7.1l-16.2,2.4
	l-14-13.7l-13.7-7.5l-25-0.8L98,154.9l-2.9,11.3l-14.4,6.4L84.4,163.4z"/>
<g id="g7546" transform="matrix(0.39859098,0,0,0.39859098,210.55052,104.62385)">
	<path id="path4-6" class="st1" d="M-270.8,50l8.3-18l12-10.4l30.5-71.1l20.2-10.8l22.4-29.6L-197.8-26l-9,35.6l-0.8,34.9l50.6-20
		l66.6-12.7L-34,41.6l-49.8-4.8l-27.8,12.6l-40,16.6l-42.2,18l0.3,29.1l-2,50.3l19,18.9l-20.5,49.9l-9.4-40.3l-26.8-20.1l-2.9-39.1
		l-14.3-37.5l-36.7,10.7l-53.6,2.8l-19.8-22.4l-45-8.2l40.7-11.2l39.9,7.8l23.4-11.8L-270.8,50z"/>
	<path id="path17-2" class="st2" d="M-196.6,195.1c-6,0.4-9.1,1.5-5.1,5.4c-10.6,4.7,9.4,4.7,8.1-2.6
		C-193.7,196.4-195,195.1-196.6,195.1z"/>
	<path id="path16-0" class="st2" d="M-195.6,145.5c-4.8,4.8-32.4,6.5-16.1,13.2c4.2,1.8,19.9,2.2,16.5-3.3
		C-195.5,152.2-195.6,148.2-195.6,145.5L-195.6,145.5z"/>
	<path id="path15-0" class="st2" d="M-224.1,106.2c-5.4,0.4-22.1,3.2-21.3,4.8c0.6,5.3,8.9,15.7,2.8,17.4c7.6-0.4,22-7,21.7-14.1
		C-236.3,116.4-210.3,108.2-224.1,106.2L-224.1,106.2z"/>
	<path id="path14-2" class="st2" d="M-327.7,93c-4.2,3.6-7.9,16.4-9.8,17.7c9.1,0.6,21.3-2.5,14.8-13.3
		C-328,99.4-323.7,93.2-327.7,93L-327.7,93z"/>
	<path id="path13-3" class="st2" d="M-355.6,71.1c-6.9,1.6-5.4,12.7-8.5,18.6c6.2,1.7,10.2,6.3,11.2-5.1
		C-353,80.9-350.4,72.2-355.6,71.1L-355.6,71.1z"/>
	<path id="path11-7" class="st2" d="M-295.4,61.1c0.8,5-18.9,3.3-12.9,8c0.1,7.7,2.4,9.4,6.3,10.4c1.8,0.4,2.9-2.9,4.7-2.8
		c1.6,0.1,2.2,3.8,3.6,3C-288.1,76.8-292.7,63-295.4,61.1z"/>
	<path id="path10-9" class="st2" d="M-173.3,49.7c-4.1,5.4-6.7,24.2-7.4,26.1c9.5,1.2,21.7-6.4,26.9-7.5c3.2,2.8-2.4-24.9-12.2-12
		C-168.6,53.9-167.9,48.5-173.3,49.7L-173.3,49.7z"/>
	<path id="path9-4" class="st2" d="M-211.5,40.4c-6.7,12.3-24.4,8.7-31.2,19.9c11.7,3.1-0.5,7.4,0,13.9c11.2,7.1,25.8-5,34.1-12.7
		c3.3-4.8,13.6-25.7,2.8-17.2C-210.1,45.2-210.8,43.9-211.5,40.4L-211.5,40.4z"/>
	<path id="path8-7" class="st2" d="M-78.8,28.6c-5.9-0.1-14.6,7.2-2.9,6.6c6.1,1.9,15.4,7.4,9.1-3.7C-73.8,29.3-76.3,28.3-78.8,28.6
		z"/>
	<path id="path7-9" class="st2" d="M-120.5,17.8c1.7,7.8-27.7,0.1-11.4,7.7c5,4.9,13.2,15.8,15.9,2.6
		C-116.2,24.8-117.8,19.4-120.5,17.8z"/>
	<path id="path6-7" class="st2" d="M-209.8,22.2c-11.8,0-0.3,14.6-0.6,7.5C-210.4,27.3-208.9,24.3-209.8,22.2z"/>
	<path id="path5-1" class="st2" d="M-232.2,20.9c-8.5,2.8-23-5.4-23.7,7c-9,9.7,14.3,0,18.3-0.5C-234.6,26.9-229.8,24.8-232.2,20.9z
		"/>
	<path id="path3-1" class="st2" d="M-224.7-21.7c-10.6-1.7-17.6,16.5-2.5,11.1C-217.5-10.9-209.4-21.1-224.7-21.7z"/>
	<path id="path18369-4" class="st2" d="M-192.7-52c-7.8-1.3-17.2,2.5-15.5,7.2c-8.7,5.7,15.3,7.9,14-1.4
		C-194.3-47.3-189.4-52.7-192.7-52z"/>
</g>
<path id="path18-4" class="st3" d="M102.6,124.6l3.3-7.2l4.8-4.1L122.8,85l8.1-4.3l8.9-11.8l-8.1,25.5l-3.6,14.2l-0.3,13.9l20.2-8
	l26.5-5.1l22.5,11.9l-19.9-1.9l-11.1,5l-16,6.6l-16.8,7.2l0.1,11.6l-0.8,20.1l7.6,7.5l-8.2,19.9l-3.8-16l-10.7-8l-1.2-15.6l-5.7-15
	L96,146.9L74.6,148l-7.9-8.9l-17.9-3.2l16.2-4.5l15.9,3.1l9.3-4.7L102.6,124.6z"/>
<circle id="path19979-2-4-3" class="st4" cx="89.4" cy="55.1" r="40.6"/>
<circle id="path19979-2-4-3-9" class="st5" cx="178" cy="135.1" r="41.6"/>
<circle id="path19979-5" class="st6" cx="111.5" cy="65.9" r="60.1"/>
<circle id="path19979-4" class="st6" cx="53.4" cy="150.4" r="53.4"/>
<circle id="path19979-2" class="st6" cx="139.9" cy="179.5" r="51.5"/>
<ellipse id="path19979-2-4" transform="matrix(7.088901e-02 -0.9975 0.9975 7.088901e-02 -69.0622 285.4555)" class="st4" cx="118.7" cy="179.8" rx="41.9" ry="41.9"/>
<circle id="path19979-2-4-1" class="st4" cx="155.8" cy="75.7" r="39.4"/>
<circle id="path19979-2-4-9" class="st4" cx="38.1" cy="146.9" r="31.5"/>
<path id="path46" class="st7" d="M229.5,118.2c-2.6-7.4-16-21.9-21.9-12.6C202.2,115.9,220.9,119.8,229.5,118.2z"/>
<path id="path48" class="st8" d="M230.8,82.3L230.8,82.3c-11.4,0.9-33.6,12-23.3,23.3C218.9,115.9,230,93.7,230.8,82.3z"/>
<path id="path50" class="st7" d="M207.6,85.3L207.6,85.3c-4.8,5.3-9.8,19.9,0,20.3C217.4,105.1,212.4,90.6,207.6,85.3L207.6,85.3
	C207.6,85.2,207.6,85.3,207.6,85.3C207.6,85.2,207.6,85.3,207.6,85.3z"/>
<path id="path28" class="st7" d="M157.8,182c0.5,6-3.4,18.5-10.1,14.2C141.3,191.2,151.9,183.5,157.8,182L157.8,182z"/>
<path id="path30" class="st8" d="M162,213.7L162,213.7c-7.7-1.4-22.2-10.5-14.4-17.5C156.1,189.9,162.2,205.8,162,213.7z"/>
<path id="path32" class="st7" d="M142.7,209.3L142.7,209.3c-1.8-4.6-1.5-15.1,4.9-13.1C153.8,198.8,147.1,207,142.7,209.3z"/>
<path id="path24" class="st7" d="M74.6,43.7c-3.4,5.9-5.4,20.6,3.6,19.3C87,60.9,79.9,47.9,74.6,43.7z"/>
<path id="path26" class="st8" d="M57.9,46L57.9,46c1.1,8.8,10.6,25.6,19,17.2C84.5,54,66.8,46.2,57.9,46z"/>
<path id="path40" class="st7" d="M37.5,176.9c-4.8-5-10.2-19-1.1-19.9C45.6,156.8,41.7,171.4,37.5,176.9z"/>
<path id="path42" class="st7" d="M22.1,149.7L22.1,149.7c5.4-1.5,17.5,0.2,14.3,7.2C32.6,163.6,24.2,155,22.1,149.7z"/>
<path id="path44" class="st8" d="M19.1,176.3L19.1,176.3c0.2-9,8.1-27,17.3-19.3C45,165.4,28,175.1,19.1,176.3z"/>
<path id="path34" class="st7" d="M118.8,106.8L118.8,106.8c5.1-4.7,11.5-18.4,2.4-19.9C112,86.3,115,101.1,118.8,106.8z"/>
<path id="path36" class="st8" d="M137.3,107.4L137.3,107.4c0.4-9-6.3-27.6-16.1-20.5C112,94.9,128.5,105.7,137.3,107.4z"/>
<path id="path38" class="st7" d="M137.5,89.5L137.5,89.5c-3.2-4.7-13.3-11.4-15.6-4C120.2,93.1,132.4,92.1,137.5,89.5z"/>
<circle id="path19979" class="st6" cx="194.3" cy="130.4" r="54.8"/>
<path id="path18857-6" class="st9" d="M0-163.9"/>
<path id="path18859-2" class="st9" d="M0-163.9"/>
<path id="path18861-7" class="st9" d="M0-163.9"/>
<path id="path18863-5" class="st9" d="M0-163.9"/>
</svg>
