<?xml version="1.0" encoding="UTF-8" standalone="no"?>
<!-- Generator: Adobe Illustrator 27.0.0, SVG Export Plug-In . SVG Version: 6.00 Build 0)  -->

<svg
   version="1.1"
   id="svg706"
   x="0px"
   y="0px"
   viewBox="0 0 457.39999 413.30001"
   xml:space="preserve"
   sodipodi:docname="birch_tree.svg"
   width="457.39999"
   height="413.29999"
   inkscape:version="1.3 (0e150ed, 2023-07-21)"
   xmlns:inkscape="http://www.inkscape.org/namespaces/inkscape"
   xmlns:sodipodi="http://sodipodi.sourceforge.net/DTD/sodipodi-0.dtd"
   xmlns="http://www.w3.org/2000/svg"
   xmlns:svg="http://www.w3.org/2000/svg"><defs
   id="defs51" />&#10;<style
   type="text/css"
   id="style2">&#10;	.st0{opacity:0.9003;fill:#A9A9A9;enable-background:new    ;}&#10;	.st1{fill:#CCCCCC;}&#10;	.st2{fill:#4D4D4D;}&#10;	.st3{fill:none;stroke:#333333;stroke-width:9;stroke-linejoin:round;stroke-miterlimit:60.4724;}&#10;	.st4{opacity:0.7997;fill:#EDAE1A;fill-opacity:0.8039;enable-background:new    ;}&#10;	.st5{opacity:0.7997;fill:#D2AD2C;fill-opacity:0.8039;enable-background:new    ;}&#10;	.st6{opacity:0.9495;fill:#F0D01A;fill-opacity:0.8461;enable-background:new    ;}&#10;	.st7{fill:#FFE436;fill-opacity:0.898;}&#10;	.st8{fill:#F6C626;fill-opacity:0.903;}&#10;</style>&#10;<sodipodi:namedview
   bordercolor="#ffffff"
   borderopacity="1"
   id="namedview53"
   inkscape:current-layer="svg706"
   inkscape:cx="127.48163"
   inkscape:cy="212.46938"
   inkscape:pagecheckerboard="1"
   inkscape:pageopacity="0"
   inkscape:pageshadow="0"
   inkscape:window-height="455"
   inkscape:window-maximized="0"
   inkscape:window-width="1496"
   inkscape:window-x="0"
   inkscape:window-y="38"
   inkscape:zoom="1.4355009"
   pagecolor="#505050"
   showgrid="false"
   showguides="true"
   inkscape:guide-bbox="true"
   inkscape:snap-bbox="true"
   inkscape:snap-global="true"
   inkscape:bbox-paths="true"
   inkscape:bbox-nodes="true"
   inkscape:snap-bbox-edge-midpoints="true"
   inkscape:snap-bbox-midpoints="true"
   inkscape:showpageshadow="0"
   inkscape:deskcolor="#d1d1d1">&#10;	</sodipodi:namedview>&#10;&#10;&#10;&#10;&#10;<path
   d="m 61.7867,239.6072 13.101848,-22.70424 -2.262581,-3.59193 -1.025113,-12.05692 -9.141648,-20.41288 13.459373,7.59977 5.970805,13.98451 3.71948,5.58151 12.940862,-14.92768 19.591454,-2.88912 9.3496,-2.45673 -4.24685,9.05136 -18.19692,4.24699 -14.420778,12.35583 16.270608,5.9869 12.56725,13.45816 10.75127,5.19703 -11.83445,1.75495 -10.2211,-10.0256 -9.99197,-5.52027 -18.279546,-0.61875 -8.135489,9.72203 -2.146512,8.30321 -10.555378,4.71339 z"
   fill="#5b3e24"
   id="path2-6"
   style="opacity:0.900296;fill:#a9a9a9;fill-opacity:1;stroke-width:0.398591"
   sodipodi:nodetypes="ccccccccccccccccccccccccc" /><g
   id="g7546"
   transform="matrix(0.39859098,0,0,0.39859098,210.55052,104.62385)"><path
     d="m -339.83095,267.28444 6.09519,-13.18483 8.75702,-7.61908 22.29914,-52.02098 14.78467,-7.87652 16.37389,-21.6598 -14.91897,46.7748 -6.56575,26.06259 -0.61541,25.54992 37.01481,-14.65981 48.71272,-9.28 41.28545,21.82568 -36.45376,-3.48895 -20.35614,9.21164 -29.31211,12.13913 -30.86658,13.15876 0.20379,21.30336 -1.48057,36.83097 13.90359,13.8528 -14.99856,36.55742 -6.8959,-29.46899 -19.61066,-14.7373 -2.1477,-28.59659 -10.49701,-27.48341 -26.8378,7.85184 -39.26218,2.05658 -14.4981,-16.40751 -32.9572,-5.96722 29.7822,-8.17155 29.19245,5.71641 17.101,-8.65757 z"
     fill="#6d4a2c"
     stroke="#1b1917"
     stroke-width="8.95759"
     stroke-miterlimit="16"
     stroke-linejoin="round"
     id="path4-6"
     style="fill:#cccccc;fill-opacity:1;stroke:none;stroke-width:6.02842;stroke-miterlimit:16;stroke-dasharray:none;stroke-opacity:1" /><path
     style="fill:#4d4d4d;fill-opacity:1;stroke-width:0.0144154"
     d="m -285.49535,373.4693 c -4.35915,0.27263 -6.67952,1.1068 -3.73225,3.95267 -7.77558,3.46907 6.8863,3.41857 5.95258,-1.91038 -0.0922,-1.12052 -1.09308,-2.0394 -2.22033,-2.04229 z"
     id="path17-2" /><path
     style="fill:#4d4d4d;fill-opacity:1;stroke-width:0.0144154"
     d="m -284.74632,337.19298 c -3.51073,3.53498 -23.71971,4.73213 -11.77609,9.66258 3.06703,1.28416 14.59994,1.58547 12.106,-2.41866 -0.27126,-2.33564 -0.34669,-5.3108 -0.32991,-7.24392 z"
     id="path16-0" /><path
     style="fill:#4d4d4d;fill-opacity:1;stroke-width:0.0144154"
     d="m -305.60178,308.37085 c -3.96673,0.3223 -16.20277,2.33097 -15.62169,3.51077 0.42913,3.88452 6.4926,11.49861 2.07883,12.76875 5.58733,-0.26949 16.13638,-5.10648 15.91223,-10.31432 -11.31406,1.51801 7.70875,-4.50957 -2.36923,-5.96552 z"
     id="path15-0" /><path
     style="fill:#4d4d4d;fill-opacity:1;stroke-width:0.0144154"
     d="m -381.47024,298.70236 c -3.04757,2.60065 -5.74656,11.99275 -7.15353,12.93717 6.69505,0.42586 15.57834,-1.82115 10.83366,-9.70853 -3.89207,1.48875 -0.70982,-3.03001 -3.68013,-3.22864 z"
     id="path14-2" /><path
     style="fill:#4d4d4d;fill-opacity:1;stroke-width:0.0144154"
     d="m -401.85829,282.69337 c -5.03142,1.17837 -3.93498,9.28704 -6.24822,13.64094 4.52295,1.24327 7.45506,4.60797 8.22104,-3.72963 -0.12248,-2.70615 1.81842,-9.08714 -1.97282,-9.91131 z"
     id="path13-3" /><path
     style="fill:#4d4d4d;fill-opacity:1;stroke-width:0.0144154"
     d="m -357.82516,275.36032 c 0.55754,3.6857 -13.8483,2.43417 -9.41286,5.87297 0.044,5.64482 1.7513,6.88744 4.63082,7.59594 1.28666,0.31658 2.08671,-2.14841 3.40781,-2.04648 1.1546,0.0891 1.64443,2.76437 2.66875,2.2242 4.04172,-2.13142 0.69558,-12.22883 -1.29452,-13.64663 z"
     id="path11-7" /><path
     style="fill:#4d4d4d;fill-opacity:1;stroke-width:0.0144154"
     d="m -268.42169,267.01748 c -2.99267,3.94722 -4.9368,17.73185 -5.42309,19.11178 6.94108,0.86685 15.85895,-4.65613 19.65816,-5.46012 2.35044,2.02201 -1.73539,-18.25528 -8.94059,-8.79278 -1.8498,-1.75272 -1.37197,-5.71242 -5.29448,-4.85888 z"
     id="path10-9" /><path
     style="fill:#4d4d4d;fill-opacity:1;stroke-width:0.0144154"
     d="m -296.39958,260.25436 c -4.89136,9.03795 -17.8506,6.34737 -22.84464,14.54774 8.56722,2.26458 -0.34978,5.39753 -0.0302,10.19388 8.16873,5.20214 18.90011,-3.66864 24.96663,-9.2606 2.4461,-3.5247 9.97465,-18.78936 2.07731,-12.58196 -3.18264,0.5764 -3.67579,-0.38979 -4.16908,-2.89906 z"
     id="path9-4" /><path
     style="fill:#4d4d4d;fill-opacity:1;stroke-width:0.0144154"
     d="m -199.251,251.58618 c -4.3238,-0.10911 -10.69477,5.25235 -2.13529,4.80377 4.47972,1.37892 11.26412,5.4289 6.67747,-2.6845 -0.9403,-1.60879 -2.75015,-2.28932 -4.54218,-2.11927 z"
     id="path8-7" /><path
     style="fill:#4d4d4d;fill-opacity:1;stroke-width:0.0144154"
     d="m -229.79757,243.72091 c 1.21724,5.69489 -20.30465,0.10126 -8.31006,5.60474 3.64953,3.59586 9.65703,11.54448 11.60303,1.8732 -0.13286,-2.39529 -1.30794,-6.33568 -3.29297,-7.47794 z"
     id="path7-9" /><path
     style="fill:#4d4d4d;fill-opacity:1;stroke-width:0.0144154"
     d="m -295.18868,246.88996 c -8.65556,-0.008 -0.24797,10.65248 -0.43752,5.48358 0.0323,-1.72778 1.1075,-3.95193 0.43752,-5.48358 z"
     id="path6-7" /><path
     style="fill:#4d4d4d;fill-opacity:1;stroke-width:0.0144154"
     d="m -311.59643,245.98083 c -6.24653,2.07048 -16.83942,-3.97188 -17.35523,5.11417 -6.58371,7.0645 10.50274,-0.001 13.4264,-0.38534 2.24428,-0.37354 5.74666,-1.886 3.92883,-4.72883 z"
     id="path5-1" /><path
     style="fill:#4d4d4d;fill-opacity:1;stroke-width:0.0144154"
     d="m -306.09047,214.77296 c -7.77556,-1.25088 -12.86129,12.10533 -1.8418,8.11469 7.10767,-0.19519 13.07144,-7.68022 1.8418,-8.11469 z"
     id="path3-1" /><path
     style="fill:#4d4d4d;fill-opacity:1;stroke-width:0.0144154"
     d="m -282.66148,192.61316 c -5.71759,-0.98614 -12.62046,1.82322 -11.31112,5.23563 -6.33699,4.14583 11.18625,5.771 10.26928,-0.99143 -0.15253,-0.78204 3.49144,-4.78275 1.04184,-4.2442 z"
     id="path18369-4" /></g><path
   d="m 75.096972,211.16102 2.429487,-5.25535 3.49047,-3.0369 8.888236,-20.73509 5.893036,-3.13951 6.526489,-8.6334 -5.946571,18.64401 -2.617049,10.38831 -0.245297,10.18397 14.753767,-5.84327 19.41645,-3.69892 16.45601,8.69952 -14.53014,-1.39067 -8.11377,3.67168 -11.68355,4.83855 -12.303136,5.24496 0.08123,8.49133 -0.590142,14.68049 5.541848,5.5216 -5.978293,14.57146 -2.748643,-11.74607 -7.816632,-5.87416 -0.856054,-11.39834 -4.184014,-10.95464 -10.697305,3.12967 -15.64955,0.81974 -5.778812,-6.53989 -13.136443,-2.37848 11.870916,-3.25711 11.635848,2.27851 6.816304,-3.45083 z"
   fill="#6d4a2c"
   stroke="#1b1917"
   stroke-width="8.95759"
   stroke-miterlimit="16"
   stroke-linejoin="round"
   id="path18-4"
   style="fill:none;fill-opacity:1;stroke:#333333;stroke-width:2.0926;stroke-miterlimit:16;stroke-dasharray:none;stroke-opacity:1" /><circle
   id="path19979-2-4-3"
   class="st4"
   cx="65.448639"
   cy="160.3138"
   r="29.695028"
   style="stroke-width:0.398591" />&#10;<circle
   id="path19979-2-4-3-9"
   class="st5"
   cx="130.25952"
   cy="218.86681"
   r="30.412493"
   style="stroke-width:0.398591" />&#10;&#10;<circle
   id="path19979-5"
   class="st6"
   cx="81.591576"
   cy="168.24576"
   r="43.964584"
   style="stroke-width:0.398591" />&#10;<circle
   id="path19979-4"
   class="st6"
   cx="39.061916"
   cy="230.06723"
   r="39.061916"
   style="stroke-width:0.398591" />&#10;<circle
   id="path19979-2"
   class="st6"
   cx="102.39802"
   cy="251.35197"
   r="37.666847"
   style="stroke-width:0.398591" />&#10;<circle
   id="path19979-2-4"
   class="st4"
   cx="86.89283"
   cy="251.59114"
   r="30.691505"
   style="stroke-width:0.398591" />&#10;<circle
   id="path19979-2-4-1"
   class="st4"
   cx="114.03688"
   cy="175.42039"
   r="28.857986"
   style="stroke-width:0.398591" />&#10;<circle
   id="path19979-2-4-9"
   class="st4"
   cy="227.47638"
   cx="27.861509"
   r="23.038559"
   style="stroke-width:0.398591" />&#10;<path
   id="path46"
   class="st7"
   d="m 167.96624,206.47063 c -1.91324,-5.38098 -11.67872,-16.06322 -16.02336,-9.24731 -3.94605,7.61309 9.72562,10.44308 16.02336,9.24731 z"
   style="stroke-width:0.398591" />&#10;<path
   id="path48"
   class="st8"
   d="m 168.96272,180.20348 v 0 c -8.33056,0.63775 -24.59307,8.76901 -17.01984,17.01984 8.25083,7.57323 16.38209,-8.68928 17.01984,-17.01984 z"
   style="stroke-width:0.398591" />&#10;<path
   id="path50"
   class="st7"
   d="m 151.94288,182.39574 v 0 c -3.5076,3.90619 -7.17464,14.54857 0,14.86744 7.17464,-0.31887 3.5076,-10.96125 0,-14.86744 v 0 c 0,-0.0399 0,0 0,0 0,-0.0399 0,0 0,0 z"
   style="stroke-width:0.398591" />&#10;<path
   id="path28"
   class="st7"
   d="m 115.47181,253.22535 c 0.39859,4.3845 -2.47127,13.5521 -7.4138,10.36337 -4.62365,-3.62718 3.14887,-9.28717 7.4138,-10.36337 z"
   style="stroke-width:0.398591" />&#10;<path
   id="path30"
   class="st8"
   d="m 118.58082,276.38349 v 0 c -5.66,-0.99648 -16.26252,-7.65295 -10.52281,-12.79477 6.17816,-4.62366 10.64238,7.05506 10.52281,12.79477 z"
   style="stroke-width:0.398591" />&#10;<path
   id="path32"
   class="st7"
   d="m 104.4707,273.1549 v 0 c -1.31535,-3.34816 -1.0762,-11.08083 3.58731,-9.56618 4.54394,1.91323 -0.35873,7.8921 -3.58731,9.56618 z"
   style="stroke-width:0.398591" />&#10;<path
   id="path24"
   class="st7"
   d="m 54.606964,151.94338 c -2.511123,4.30479 -3.946051,15.06674 2.6307,14.14998 6.457174,-1.51464 1.235632,-11.04097 -2.6307,-14.14998 z"
   style="stroke-width:0.398591" />&#10;<path
   id="path26"
   class="st8"
   d="m 42.41008,153.61747 v 0 c 0.797182,6.45717 7.772524,18.73377 13.870966,12.55561 5.540415,-6.69633 -7.413792,-12.39618 -13.870966,-12.55561 z"
   style="stroke-width:0.398591" />&#10;<path
   id="path40"
   class="st7"
   d="m 27.423059,249.43874 c -3.5076,-3.66704 -7.49351,-13.91083 -0.797182,-14.58843 6.776047,-0.0797 3.866333,10.56266 0.797182,14.58843 z"
   style="stroke-width:0.398591" />&#10;<path
   id="path42"
   class="st7"
   d="m 16.182794,229.54905 v 0 c 3.985909,-1.0762 12.79477,0.15943 10.443083,5.30126 -2.750277,4.90267 -8.928438,-1.43493 -10.443083,-5.30126 z"
   style="stroke-width:0.398591" />&#10;<path
   id="path44"
   class="st8"
   d="m 13.950684,249.00029 v 0 c 0.159437,-6.57675 5.899147,-19.73026 12.675193,-14.14998 6.337597,6.17816 -6.138301,13.27308 -12.675193,14.14998 z"
   style="stroke-width:0.398591" />&#10;<path
   id="path34"
   class="st7"
   d="m 86.972551,198.17994 v 0 c 3.746756,-3.42788 8.450129,-13.47238 1.753801,-14.58843 -6.776047,-0.47831 -4.583797,10.36336 -1.753801,14.58843 z"
   style="stroke-width:0.398591" />&#10;<path
   id="path36"
   class="st8"
   d="m 100.52464,198.61839 v 0 c 0.27902,-6.61661 -4.583792,-20.20856 -11.798288,-15.02688 -6.736188,5.81943 5.30126,13.75139 11.798288,15.02688 z"
   style="stroke-width:0.398591" />&#10;<path
   id="path38"
   class="st7"
   d="m 100.60436,185.46489 v 0 c -2.311825,-3.46775 -9.765476,-8.37041 -11.399699,-2.90972 -1.195773,5.58028 7.692806,4.86281 11.399699,2.90972 z"
   style="stroke-width:0.398591" />&#10;<circle
   id="path19979"
   class="st6"
   cx="142.21725"
   cy="215.43892"
   r="40.098251"
   style="stroke-width:0.398591" /><path
   style="fill:#4d4d4d;fill-opacity:1;stroke-width:0.0326139"
   d=""
   id="path18857-6" /><path
   style="fill:#4d4d4d;fill-opacity:1;stroke-width:0.0326139"
   d=""
   id="path18859-2" /><path
   style="fill:#4d4d4d;fill-opacity:1;stroke-width:0.0326139"
   d=""
   id="path18861-7" /><path
   style="fill:#4d4d4d;fill-opacity:1;stroke-width:0.0326139"
   d=""
   id="path18863-5" /></svg>
