<?xml version="1.0" encoding="UTF-8" standalone="no"?>
<!-- Generator: Adobe Illustrator 27.0.0, SVG Export Plug-In . SVG Version: 6.00 Build 0)  -->

<svg
   version="1.1"
   id="svg706"
   x="0px"
   y="0px"
   viewBox="0 0 457.39999 413.30001"
   xml:space="preserve"
   sodipodi:docname="birch_tree.svg"
   width="457.39999"
   height="413.29999"
   inkscape:version="1.1.2 (b8e25be833, 2022-02-05)"
   xmlns:inkscape="http://www.inkscape.org/namespaces/inkscape"
   xmlns:sodipodi="http://sodipodi.sourceforge.net/DTD/sodipodi-0.dtd"
   xmlns="http://www.w3.org/2000/svg"
   xmlns:svg="http://www.w3.org/2000/svg"><defs
   id="defs51" />
<style
   type="text/css"
   id="style2">
	.st0{opacity:0.9003;fill:#A9A9A9;enable-background:new    ;}
	.st1{fill:#CCCCCC;}
	.st2{fill:#4D4D4D;}
	.st3{fill:none;stroke:#333333;stroke-width:9;stroke-linejoin:round;stroke-miterlimit:60.4724;}
	.st4{opacity:0.7997;fill:#EDAE1A;fill-opacity:0.8039;enable-background:new    ;}
	.st5{opacity:0.7997;fill:#D2AD2C;fill-opacity:0.8039;enable-background:new    ;}
	.st6{opacity:0.9495;fill:#F0D01A;fill-opacity:0.8461;enable-background:new    ;}
	.st7{fill:#FFE436;fill-opacity:0.898;}
	.st8{fill:#F6C626;fill-opacity:0.903;}
</style>
<sodipodi:namedview
   bordercolor="#ffffff"
   borderopacity="1"
   id="namedview53"
   inkscape:current-layer="svg706"
   inkscape:cx="275.77163"
   inkscape:cy="-32.52691"
   inkscape:pagecheckerboard="1"
   inkscape:pageopacity="0"
   inkscape:pageshadow="0"
   inkscape:window-height="706"
   inkscape:window-maximized="1"
   inkscape:window-width="1366"
   inkscape:window-x="-8"
   inkscape:window-y="-8"
   inkscape:zoom="0.35355341"
   pagecolor="#505050"
   showgrid="false"
   showguides="true"
   inkscape:guide-bbox="true"
   inkscape:snap-bbox="true"
   inkscape:snap-global="true"
   inkscape:bbox-paths="true"
   inkscape:bbox-nodes="true"
   inkscape:snap-bbox-edge-midpoints="true"
   inkscape:snap-bbox-midpoints="true">
	</sodipodi:namedview>




<path
   d="m 155.01279,289.33427 32.87041,-56.96126 -5.67645,-9.01157 -2.57184,-30.24885 -22.93491,-51.2126 33.76738,19.06659 14.97978,35.08487 9.33157,14.0031 32.46652,-37.45112 49.15177,-7.24833 23.45662,-6.16354 -10.65464,22.7084 -45.65313,10.65499 -36.17938,30.99879 40.82031,15.02014 31.52919,33.76434 26.9732,13.03852 -29.69072,4.40287 -25.64308,-25.15259 -25.06823,-13.84948 -45.86041,-1.55232 -20.41062,24.39097 -5.38525,20.83141 -26.48173,11.82514 z"
   fill="#5b3e24"
   id="path2-6"
   style="opacity:0.900296;fill:#a9a9a9;fill-opacity:1;stroke-width:0.999999"
   sodipodi:nodetypes="ccccccccccccccccccccccccc" /><g
   id="g7546"
   transform="translate(528.23705,-49.317012)"><path
     d="m -339.83095,267.28444 6.09519,-13.18483 8.75702,-7.61908 22.29914,-52.02098 14.78467,-7.87652 16.37389,-21.6598 -14.91897,46.7748 -6.56575,26.06259 -0.61541,25.54992 37.01481,-14.65981 48.71272,-9.28 41.28545,21.82568 -36.45376,-3.48895 -20.35614,9.21164 -29.31211,12.13913 -30.86658,13.15876 0.20379,21.30336 -1.48057,36.83097 13.90359,13.8528 -14.99856,36.55742 -6.8959,-29.46899 -19.61066,-14.7373 -2.1477,-28.59659 -10.49701,-27.48341 -26.8378,7.85184 -39.26218,2.05658 -14.4981,-16.40751 -32.9572,-5.96722 29.7822,-8.17155 29.19245,5.71641 17.101,-8.65757 z"
     fill="#6d4a2c"
     stroke="#1b1917"
     stroke-width="8.95759"
     stroke-miterlimit="16"
     stroke-linejoin="round"
     id="path4-6"
     style="fill:#cccccc;fill-opacity:1;stroke:none;stroke-width:6.02842;stroke-miterlimit:16;stroke-dasharray:none;stroke-opacity:1" /><path
     style="fill:#4d4d4d;fill-opacity:1;stroke-width:0.0144154"
     d="m -285.49535,373.4693 c -4.35915,0.27263 -6.67952,1.1068 -3.73225,3.95267 -7.77558,3.46907 6.8863,3.41857 5.95258,-1.91038 -0.0922,-1.12052 -1.09308,-2.0394 -2.22033,-2.04229 z"
     id="path17-2" /><path
     style="fill:#4d4d4d;fill-opacity:1;stroke-width:0.0144154"
     d="m -284.74632,337.19298 c -3.51073,3.53498 -23.71971,4.73213 -11.77609,9.66258 3.06703,1.28416 14.59994,1.58547 12.106,-2.41866 -0.27126,-2.33564 -0.34669,-5.3108 -0.32991,-7.24392 z"
     id="path16-0" /><path
     style="fill:#4d4d4d;fill-opacity:1;stroke-width:0.0144154"
     d="m -305.60178,308.37085 c -3.96673,0.3223 -16.20277,2.33097 -15.62169,3.51077 0.42913,3.88452 6.4926,11.49861 2.07883,12.76875 5.58733,-0.26949 16.13638,-5.10648 15.91223,-10.31432 -11.31406,1.51801 7.70875,-4.50957 -2.36923,-5.96552 z"
     id="path15-0" /><path
     style="fill:#4d4d4d;fill-opacity:1;stroke-width:0.0144154"
     d="m -381.47024,298.70236 c -3.04757,2.60065 -5.74656,11.99275 -7.15353,12.93717 6.69505,0.42586 15.57834,-1.82115 10.83366,-9.70853 -3.89207,1.48875 -0.70982,-3.03001 -3.68013,-3.22864 z"
     id="path14-2" /><path
     style="fill:#4d4d4d;fill-opacity:1;stroke-width:0.0144154"
     d="m -401.85829,282.69337 c -5.03142,1.17837 -3.93498,9.28704 -6.24822,13.64094 4.52295,1.24327 7.45506,4.60797 8.22104,-3.72963 -0.12248,-2.70615 1.81842,-9.08714 -1.97282,-9.91131 z"
     id="path13-3" /><path
     style="fill:#4d4d4d;fill-opacity:1;stroke-width:0.0144154"
     d="m -357.82516,275.36032 c 0.55754,3.6857 -13.8483,2.43417 -9.41286,5.87297 0.044,5.64482 1.7513,6.88744 4.63082,7.59594 1.28666,0.31658 2.08671,-2.14841 3.40781,-2.04648 1.1546,0.0891 1.64443,2.76437 2.66875,2.2242 4.04172,-2.13142 0.69558,-12.22883 -1.29452,-13.64663 z"
     id="path11-7" /><path
     style="fill:#4d4d4d;fill-opacity:1;stroke-width:0.0144154"
     d="m -268.42169,267.01748 c -2.99267,3.94722 -4.9368,17.73185 -5.42309,19.11178 6.94108,0.86685 15.85895,-4.65613 19.65816,-5.46012 2.35044,2.02201 -1.73539,-18.25528 -8.94059,-8.79278 -1.8498,-1.75272 -1.37197,-5.71242 -5.29448,-4.85888 z"
     id="path10-9" /><path
     style="fill:#4d4d4d;fill-opacity:1;stroke-width:0.0144154"
     d="m -296.39958,260.25436 c -4.89136,9.03795 -17.8506,6.34737 -22.84464,14.54774 8.56722,2.26458 -0.34978,5.39753 -0.0302,10.19388 8.16873,5.20214 18.90011,-3.66864 24.96663,-9.2606 2.4461,-3.5247 9.97465,-18.78936 2.07731,-12.58196 -3.18264,0.5764 -3.67579,-0.38979 -4.16908,-2.89906 z"
     id="path9-4" /><path
     style="fill:#4d4d4d;fill-opacity:1;stroke-width:0.0144154"
     d="m -199.251,251.58618 c -4.3238,-0.10911 -10.69477,5.25235 -2.13529,4.80377 4.47972,1.37892 11.26412,5.4289 6.67747,-2.6845 -0.9403,-1.60879 -2.75015,-2.28932 -4.54218,-2.11927 z"
     id="path8-7" /><path
     style="fill:#4d4d4d;fill-opacity:1;stroke-width:0.0144154"
     d="m -229.79757,243.72091 c 1.21724,5.69489 -20.30465,0.10126 -8.31006,5.60474 3.64953,3.59586 9.65703,11.54448 11.60303,1.8732 -0.13286,-2.39529 -1.30794,-6.33568 -3.29297,-7.47794 z"
     id="path7-9" /><path
     style="fill:#4d4d4d;fill-opacity:1;stroke-width:0.0144154"
     d="m -295.18868,246.88996 c -8.65556,-0.008 -0.24797,10.65248 -0.43752,5.48358 0.0323,-1.72778 1.1075,-3.95193 0.43752,-5.48358 z"
     id="path6-7" /><path
     style="fill:#4d4d4d;fill-opacity:1;stroke-width:0.0144154"
     d="m -311.59643,245.98083 c -6.24653,2.07048 -16.83942,-3.97188 -17.35523,5.11417 -6.58371,7.0645 10.50274,-0.001 13.4264,-0.38534 2.24428,-0.37354 5.74666,-1.886 3.92883,-4.72883 z"
     id="path5-1" /><path
     style="fill:#4d4d4d;fill-opacity:1;stroke-width:0.0144154"
     d="m -306.09047,214.77296 c -7.77556,-1.25088 -12.86129,12.10533 -1.8418,8.11469 7.10767,-0.19519 13.07144,-7.68022 1.8418,-8.11469 z"
     id="path3-1" /><path
     style="fill:#4d4d4d;fill-opacity:1;stroke-width:0.0144154"
     d="m -282.66148,192.61316 c -5.71759,-0.98614 -12.62046,1.82322 -11.31112,5.23563 -6.33699,4.14583 11.18625,5.771 10.26928,-0.99143 -0.15253,-0.78204 3.49144,-4.78275 1.04184,-4.2442 z"
     id="path18369-4" /></g><path
   d="m 188.4061,217.96743 6.09519,-13.18483 8.75702,-7.61908 22.29914,-52.02098 14.78467,-7.87652 16.37389,-21.6598 -14.91897,46.7748 -6.56575,26.06259 -0.61541,25.54992 37.01481,-14.65981 48.71272,-9.28 41.28545,21.82568 -36.45376,-3.48895 -20.35614,9.21164 -29.31211,12.13913 -30.86658,13.15876 0.20379,21.30336 -1.48057,36.83097 13.90359,13.8528 -14.99856,36.55742 -6.8959,-29.46899 -19.61066,-14.7373 -2.1477,-28.59659 -10.49701,-27.48341 -26.8378,7.85184 -39.26218,2.05658 -14.4981,-16.40751 -32.9572,-5.96722 29.7822,-8.17155 29.19245,5.71641 17.101,-8.65757 z"
   fill="#6d4a2c"
   stroke="#1b1917"
   stroke-width="8.95759"
   stroke-miterlimit="16"
   stroke-linejoin="round"
   id="path18-4"
   style="fill:none;fill-opacity:1;stroke:#333333;stroke-width:5.24999;stroke-miterlimit:16;stroke-dasharray:none;stroke-opacity:1" /><circle
   id="path19979-2-4-3"
   class="st4"
   cx="164.2"
   cy="90.399994"
   r="74.5" />
<circle
   id="path19979-2-4-3-9"
   class="st5"
   cx="326.79999"
   cy="237.3"
   r="76.300003" />

<circle
   id="path19979-5"
   class="st6"
   cx="204.7"
   cy="110.3"
   r="110.3" />
<circle
   id="path19979-4"
   class="st6"
   cx="98"
   cy="265.40002"
   r="98" />
<circle
   id="path19979-2"
   class="st6"
   cx="256.89999"
   cy="318.79999"
   r="94.5" />
<circle
   id="path19979-2-4"
   class="st4"
   cx="218"
   cy="319.40002"
   r="77" />
<circle
   id="path19979-2-4-1"
   class="st4"
   cx="286.10001"
   cy="128.3"
   r="72.400002" />
<circle
   id="path19979-2-4-9"
   class="st4"
   cy="258.90002"
   cx="69.900002"
   r="57.799999" />
<path
   id="path46"
   class="st7"
   d="m 421.4,206.2 c -4.8,-13.5 -29.3,-40.3 -40.2,-23.2 -9.9,19.1 24.4,26.2 40.2,23.2 v 0 z" />
<path
   id="path48"
   class="st8"
   d="m 423.9,140.3 v 0 c -20.9,1.6 -61.7,22 -42.7,42.7 20.7,19 41.1,-21.8 42.7,-42.7 v 0 0 z" />
<path
   id="path50"
   class="st7"
   d="m 381.2,145.8 v 0 c -8.8,9.8 -18,36.5 0,37.3 18,-0.8 8.8,-27.5 0,-37.3 v 0 c 0,-0.1 0,0 0,0 0,-0.1 0,0 0,0 z" />
<path
   id="path28"
   class="st7"
   d="m 289.7,323.5 c 1,11 -6.2,34 -18.6,26 -11.6,-9.1 7.9,-23.3 18.6,-26 v 0 z" />
<path
   id="path30"
   class="st8"
   d="m 297.5,381.6 v 0 c -14.2,-2.5 -40.8,-19.2 -26.4,-32.1 15.5,-11.6 26.7,17.7 26.4,32.1 v 0 0 z" />
<path
   id="path32"
   class="st7"
   d="m 262.1,373.5 v 0 c -3.3,-8.4 -2.7,-27.8 9,-24 11.4,4.8 -0.9,19.8 -9,24 z" />
<path
   id="path24"
   class="st7"
   d="m 137,69.399997 c -6.3,10.8 -9.9,37.800003 6.6,35.500003 16.2,-3.8 3.1,-27.700003 -6.6,-35.500003 v 0 z" />
<path
   id="path26"
   class="st8"
   d="m 106.4,73.599997 v 0 c 2,16.2 19.5,47.000003 34.8,31.500003 13.9,-16.800003 -18.6,-31.100003 -34.8,-31.500003 v 0 0 z" />
<path
   id="path40"
   class="st7"
   d="m 68.8,314 c -8.8,-9.2 -18.8,-34.9 -2,-36.6 17,-0.2 9.7,26.5 2,36.6 v 0 z" />
<path
   id="path42"
   class="st7"
   d="m 40.6,264.1 v 0 c 10,-2.7 32.1,0.4 26.2,13.3 -6.9,12.3 -22.4,-3.6 -26.2,-13.3 z" />
<path
   id="path44"
   class="st8"
   d="m 35,312.9 v 0 c 0.4,-16.5 14.8,-49.5 31.8,-35.5 15.9,15.5 -15.4,33.3 -31.8,35.5 v 0 0 z" />
<path
   id="path34"
   class="st7"
   d="m 218.2,185.4 v 0 c 9.4,-8.6 21.2,-33.8 4.4,-36.6 -17,-1.2 -11.5,26 -4.4,36.6 z" />
<path
   id="path36"
   class="st8"
   d="m 252.2,186.5 v 0 c 0.7,-16.6 -11.5,-50.7 -29.6,-37.7 -16.9,14.6 13.3,34.5 29.6,37.7 v 0 0 z" />
<path
   id="path38"
   class="st7"
   d="m 252.4,153.5 v 0 c -5.8,-8.7 -24.5,-21 -28.6,-7.3 -3,14 19.3,12.2 28.6,7.3 z" />
<circle
   id="path19979"
   class="st6"
   cx="356.79999"
   cy="228.7"
   r="100.6" /><path
   style="fill:#4d4d4d;fill-opacity:1;stroke-width:0.081823"
   d=""
   id="path18857-6" /><path
   style="fill:#4d4d4d;fill-opacity:1;stroke-width:0.081823"
   d=""
   id="path18859-2" /><path
   style="fill:#4d4d4d;fill-opacity:1;stroke-width:0.081823"
   d=""
   id="path18861-7" /><path
   style="fill:#4d4d4d;fill-opacity:1;stroke-width:0.081823"
   d=""
   id="path18863-5" /></svg>
