<?xml version="1.0" encoding="utf-8"?>
<!-- Generator: Adobe Illustrator 27.0.0, SVG Export Plug-In . SVG Version: 6.00 Build 0)  -->
<svg version="1.1"
	 id="svg706" xmlns:svg="http://www.w3.org/2000/svg" xmlns:inkscape="http://www.inkscape.org/namespaces/inkscape" xmlns:sodipodi="http://sodipodi.sourceforge.net/DTD/sodipodi-0.dtd"
	 xmlns="http://www.w3.org/2000/svg" xmlns:xlink="http://www.w3.org/1999/xlink" x="0px" y="0px" viewBox="0 0 464.3 423.9"
	 style="enable-background:new 0 0 464.3 423.9;" xml:space="preserve">
<style type="text/css">
	.st0{fill:#CCCCCC;}
	.st1{opacity:0.9003;fill:#A9A9A9;enable-background:new    ;}
	.st2{fill:#4D4D4D;}
	.st3{fill:none;stroke:#333333;stroke-width:5.25;stroke-linejoin:round;stroke-miterlimit:16;}
	.st4{opacity:0.7997;fill:#EDAE1A;fill-opacity:0.8039;enable-background:new    ;}
	.st5{opacity:0.7997;fill:#D2AD2C;fill-opacity:0.8039;enable-background:new    ;}
	.st6{opacity:0.9495;fill:#F0D01A;fill-opacity:0.8461;enable-background:new    ;}
	.st7{fill:#FFE436;fill-opacity:0.898;}
	.st8{fill:#F6C626;fill-opacity:0.903;}
	.st9{fill:#F0D01A;fill-opacity:0.8461;}
</style>
<sodipodi:namedview  bordercolor="#ffffff" borderopacity="1" id="namedview53" inkscape:current-layer="svg706" inkscape:cx="-124.45079" inkscape:cy="114.55129" inkscape:pagecheckerboard="1" inkscape:pageopacity="0" inkscape:pageshadow="0" inkscape:window-height="1372" inkscape:window-maximized="1" inkscape:window-width="2560" inkscape:window-x="0" inkscape:window-y="0" inkscape:zoom="0.70710682" pagecolor="#505050" showgrid="false">
	</sodipodi:namedview>
<g id="g18" transform="translate(112.97074,-119.09384)">
	<path id="path18857" class="st0" d="M198.1-111.7"/>
	<path id="path18859" class="st0" d="M198.1-111.7"/>
	<path id="path18861" class="st0" d="M198.1-111.7"/>
	<path id="path18863" class="st0" d="M198.1-111.7"/>
</g>
<path id="path2-6" sodipodi:nodetypes="ccccccccccccccccccccccccc" class="st1" d="M157.3,298l33.4-57.8l-5.8-9.1l-2.6-30.7
	l-23.3-52l34.3,19.4l15.2,35.6l9.5,14.2l33-38l49.9-7.4l23.8-6.3L313.9,189l-46.3,10.8l-36.7,31.5l41.4,15.2l32,34.3l27.4,13.2
	l-30.1,4.5l-26-25.5L250,258.9l-46.6-1.6l-20.7,24.8l-5.5,21.1l-26.9,12L157.3,298z"/>
<g id="g7546" transform="translate(528.23705,-49.317012)">
	<path id="path4-6" class="st0" d="M-337,274.9l6.2-13.4l8.9-7.7l22.6-52.8l15-8l16.6-22l-15.1,47.5l-6.7,26.5l-0.6,25.9l37.6-14.9
		l49.4-9.4l41.9,22.2l-37-3.5l-20.7,9.4l-29.8,12.3l-31.3,13.4l0.2,21.6l-1.5,37.4l14.1,14.1l-15.2,37.1l-7-29.9l-19.9-15l-2.2-29
		l-10.7-27.9l-27.2,8l-39.9,2.1l-14.7-16.7l-33.5-6.1l30.2-8.3l29.6,5.8l17.4-8.8L-337,274.9z"/>
	<path id="path17-2" class="st2" d="M-281.8,382.7c-4.4,0.3-6.8,1.1-3.8,4c-7.9,3.5,7,3.5,6-1.9
		C-279.7,383.6-280.7,382.7-281.8,382.7z"/>
	<path id="path16-0" class="st2" d="M-281.1,345.9c-3.6,3.6-24.1,4.8-12,9.8c3.1,1.3,14.8,1.6,12.3-2.5
		C-281,350.9-281.1,347.8-281.1,345.9L-281.1,345.9z"/>
	<path id="path15-0" class="st2" d="M-302.3,316.6c-4,0.3-16.4,2.4-15.9,3.6c0.4,3.9,6.6,11.7,2.1,13c5.7-0.3,16.4-5.2,16.2-10.5
		C-311.3,324.2-292,318.1-302.3,316.6L-302.3,316.6z"/>
	<path id="path14-2" class="st2" d="M-379.3,306.8c-3.1,2.6-5.8,12.2-7.3,13.1c6.8,0.4,15.8-1.8,11-9.9
		C-379.5,311.6-376.2,307-379.3,306.8L-379.3,306.8z"/>
	<path id="path13-3" class="st2" d="M-400,290.6c-5.1,1.2-4,9.4-6.3,13.8c4.6,1.3,7.6,4.7,8.3-3.8
		C-398.1,297.9-396.1,291.4-400,290.6L-400,290.6z"/>
	<path id="path11-7" class="st2" d="M-355.3,283.1c0.6,3.7-14.1,2.5-9.6,6c0,5.7,1.8,7,4.7,7.7c1.3,0.3,2.1-2.2,3.5-2.1
		c1.2,0.1,1.7,2.8,2.7,2.3C-349.8,294.8-353.2,284.6-355.3,283.1z"/>
	<path id="path10-9" class="st2" d="M-264.5,274.6c-3,4-5,18-5.5,19.4c7,0.9,16.1-4.7,20-5.5c2.4,2.1-1.8-18.5-9.1-8.9
		C-261,277.8-260.5,273.8-264.5,274.6L-264.5,274.6z"/>
	<path id="path9-4" class="st2" d="M-292.9,267.8c-5,9.2-18.1,6.4-23.2,14.8c8.7,2.3-0.4,5.5,0,10.3c8.3,5.3,19.2-3.7,25.3-9.4
		c2.5-3.6,10.1-19.1,2.1-12.8C-291.9,271.3-292.4,270.3-292.9,267.8L-292.9,267.8z"/>
	<path id="path8-7" class="st2" d="M-194.3,259c-4.4-0.1-10.9,5.3-2.2,4.9c4.5,1.4,11.4,5.5,6.8-2.7
		C-190.6,259.5-192.5,258.8-194.3,259L-194.3,259z"/>
	<path id="path7-9" class="st2" d="M-225.3,251c1.2,5.8-20.6,0.1-8.4,5.7c3.7,3.6,9.8,11.7,11.8,1.9
		C-222.1,256.2-223.3,252.2-225.3,251z"/>
	<path id="path6-7" class="st2" d="M-291.7,254.2c-8.8,0-0.3,10.8-0.4,5.6C-292.1,258-291,255.8-291.7,254.2z"/>
	<path id="path5-1" class="st2" d="M-308.3,253.3c-6.3,2.1-17.1-4-17.6,5.2c-6.7,7.2,10.7,0,13.6-0.4
		C-310,257.7-306.5,256.2-308.3,253.3L-308.3,253.3z"/>
	<path id="path3-1" class="st2" d="M-302.7,221.6c-7.9-1.3-13.1,12.3-1.9,8.2C-297.4,229.7-291.3,222.1-302.7,221.6z"/>
	<path id="path18369-4" class="st2" d="M-279,199.1c-5.8-1-12.8,1.9-11.5,5.3c-6.4,4.2,11.4,5.9,10.4-1
		C-280.2,202.6-276.5,198.6-279,199.1z"/>
</g>
<path id="path18-4" class="st3" d="M191.2,225.6l6.2-13.4l8.9-7.7l22.6-52.8l15-8l16.6-22l-15.1,47.5l-6.7,26.5l-0.6,25.9l37.6-14.9
	l49.4-9.4l41.9,22.2l-37-3.5l-20.7,9.4l-29.8,12.3l-31.3,13.4l0.2,21.6l-1.5,37.4l14.1,14.1l-15.2,37.1l-7-29.9l-19.9-15l-2.2-29
	l-10.7-27.9l-27.2,8l-39.9,2.1l-14.7-16.7l-33.5-6.1l30.2-8.3l29.6,5.8l17.4-8.8L191.2,225.6z"/>
<circle id="path19979-2-4-3_00000093140411697156435740000010866080763028436098_" class="st4" cx="166.7" cy="96.1" r="75.6"/>
<circle id="path19979-2-4-3-9_00000031169422282506509550000017025131933395798420_" class="st5" cx="331.7" cy="245.2" r="77.4"/>
<circle id="path19979-5_00000183231723483354252950000012476274268247983238_" class="st6" cx="207.8" cy="116.3" r="112"/>
<circle id="path19979-4_00000142872385006312314680000002277391539048182192_" class="st6" cx="99.5" cy="273.7" r="99.5"/>
<circle id="path19979-2_00000119816879092243655690000003303437458673855410_" class="st6" cx="260.8" cy="327.9" r="95.9"/>
<circle id="path19979-2-4_00000024712126426408589410000012812370688686947214_" class="st4" cx="221.3" cy="328.6" r="78.2"/>
<circle id="path19979-2-4-1_00000137092661558252157710000006970632078280125092_" class="st4" cx="290.4" cy="134.6" r="73.5"/>
<circle id="path19979-2-4-9_00000067204351902328056470000014459946062481645977_" class="st4" cx="71" cy="267.1" r="58.7"/>
<path id="path46_00000126290091073820335890000009241906919838553491_" class="st7" d="M427.7,213.7c-4.9-13.7-29.7-40.9-40.8-23.5
	C376.9,209.5,411.7,216.7,427.7,213.7L427.7,213.7z"/>
<path id="path48_00000156568372206806092480000005191711462707095445_" class="st8" d="M430.3,146.8L430.3,146.8
	c-21.2,1.6-62.6,22.3-43.3,43.3C407.9,209.4,428.7,168,430.3,146.8L430.3,146.8L430.3,146.8z"/>
<path id="path50_00000072967391326693046800000017255669269053883800_" class="st7" d="M386.9,152.3L386.9,152.3
	c-8.9,9.9-18.3,37,0,37.9C405.2,189.4,395.9,162.3,386.9,152.3L386.9,152.3C386.9,152.2,386.9,152.3,386.9,152.3
	C386.9,152.2,386.9,152.3,386.9,152.3z"/>
<path id="path28_00000142165323853329991730000015141217521843091848_" class="st7" d="M294.1,332.7c1,11.2-6.3,34.5-18.9,26.4
	C263.4,349.9,283.2,335.5,294.1,332.7L294.1,332.7z"/>
<path id="path30_00000107581747706896691340000009290126320856503446_" class="st8" d="M302,391.7L302,391.7
	c-14.4-2.5-41.4-19.5-26.8-32.6C290.9,347.3,302.3,377.1,302,391.7L302,391.7L302,391.7z"/>
<path id="path32_00000166636456922312215180000006075872638949657988_" class="st7" d="M266,383.5L266,383.5
	c-3.3-8.5-2.7-28.2,9.1-24.4C286.8,364,274.3,379.2,266,383.5z"/>
<path id="path24_00000124137306507160426080000009793581939475776950_" class="st7" d="M139.1,74.8c-6.4,11-10,38.4,6.7,36
	C162.2,107,148.9,82.7,139.1,74.8L139.1,74.8z"/>
<path id="path26_00000155833811646911046570000006591028288663878335_" class="st8" d="M108,79.1L108,79.1c2,16.4,19.8,47.7,35.3,32
	C157.4,94,124.4,79.5,108,79.1L108,79.1C108,79.1,108,79.1,108,79.1z"/>
<path id="path40_00000018954178022275295760000016210068088934770343_" class="st7" d="M69.8,323.1c-8.9-9.3-19.1-35.4-2-37.2
	C85.1,285.7,77.7,312.8,69.8,323.1L69.8,323.1z"/>
<path id="path42_00000129197764195100037510000016626900892672919426_" class="st7" d="M41.2,272.4L41.2,272.4
	c10.2-2.7,32.6,0.4,26.6,13.5C60.8,298.4,45.1,282.3,41.2,272.4z"/>
<path id="path44_00000036954546507687878460000011968335029562438826_" class="st8" d="M35.5,322L35.5,322c0.4-16.7,15-50.2,32.3-36
	C83.9,301.7,52.2,319.7,35.5,322L35.5,322C35.5,322,35.5,322,35.5,322z"/>
<path id="path34_00000110472402165246772020000007039374177055418767_" class="st7" d="M221.5,192.5L221.5,192.5
	c9.5-8.7,21.5-34.3,4.5-37.2C208.7,154.2,214.3,181.8,221.5,192.5z"/>
<path id="path36_00000036966463130423889760000011786237722176451720_" class="st8" d="M256,193.7L256,193.7
	c0.7-16.8-11.7-51.5-30-38.3C208.8,170.2,239.4,190.4,256,193.7L256,193.7L256,193.7z"/>
<path id="path38_00000158717743575339734930000017714106455050791354_" class="st7" d="M256.2,160.2L256.2,160.2
	c-5.9-8.8-24.9-21.3-29-7.4C224.1,167,246.8,165.1,256.2,160.2z"/>
<circle id="path19979_00000060749300769072864560000005903769859821142432_" class="st6" cx="362.2" cy="236.5" r="102.1"/>
<path id="path18857-6" class="st9" d="M470.7,0"/>
<path id="path18859-2" class="st9" d="M470.7,0"/>
<path id="path18861-7" class="st9" d="M470.7,0"/>
<path id="path18863-5" class="st9" d="M470.7,0"/>
</svg>
